# xmcd
#
# Track frame offsets:
#	182
#	18627
#	40180
#	71982
#	93087
#	112825
#	135492
#	153115
#	180597
#	207405
#	230457
#
# Disc length: 3285
#
# Revision: 1
# Processed by: cddbd v1.5.1PL0 Copyright (c) Steve Scherf et al.
# Submitted via: CDex 1.51
# Normalized: r0:TRMNUM
#
DISCID=890cd30b
DTITLE=Hillion, Christian - Secrets Loves
DYEAR=1992
DGENRE=Jazz
TTITLE0=Ballade pour Catherine
TTITLE1=Steeple Chase
TTITLE2=Here's that rainy day
TTITLE3=Bag pipe in engadine
TTITLE4=Bye bye blackbird
TTITLE5=Jany's keyboard
TTITLE6=Broadway
TTITLE7=Blues for Lulu
TTITLE8=Secret love
TTITLE9=Polka dots and moonbeans
TTITLE10=Jammin' at the flamingo
EXTD=YEAR: 1992
EXTT0=
EXTT1=
EXTT2=
EXTT3=
EXTT4=
EXTT5=
EXTT6=
EXTT7=
EXTT8=
EXTT9=
EXTT10=
PLAYORDER=
